<svg width="75" height="41" viewBox="0 0 75 41" fill="none" xmlns="http://www.w3.org/2000/svg">
<path d="M72.3 18.6416H67.25V23.8166H64.6V18.6416H59.55V16.2416H64.6V11.0666H67.25V16.2416H72.3V18.6416Z" fill="#E21217"/>
<path d="M7.86 32.8733C6.55333 32.8733 5.35333 32.5667 4.26 31.9533C3.16667 31.34 2.3 30.4933 1.66 29.4133C1.02 28.32 0.7 27.0867 0.7 25.7133C0.7 24.3533 1.02 23.1333 1.66 22.0533C2.3 20.96 3.16667 20.1067 4.26 19.4933C5.35333 18.88 6.55333 18.5733 7.86 18.5733C9.18 18.5733 10.38 18.88 11.46 19.4933C12.5533 20.1067 13.4133 20.96 14.04 22.0533C14.68 23.1333 15 24.3533 15 25.7133C15 27.0867 14.68 28.32 14.04 29.4133C13.4133 30.4933 12.5533 31.34 11.46 31.9533C10.3667 32.5667 9.16667 32.8733 7.86 32.8733ZM7.86 30.3733C8.7 30.3733 9.44 30.1867 10.08 29.8133C10.72 29.4267 11.22 28.88 11.58 28.1733C11.94 27.4667 12.12 26.6467 12.12 25.7133C12.12 24.78 11.94 23.9667 11.58 23.2733C11.22 22.5667 10.72 22.0267 10.08 21.6533C9.44 21.28 8.7 21.0933 7.86 21.0933C7.02 21.0933 6.27333 21.28 5.62 21.6533C4.98 22.0267 4.48 22.5667 4.12 23.2733C3.76 23.9667 3.58 24.78 3.58 25.7133C3.58 26.6467 3.76 27.4667 4.12 28.1733C4.48 28.88 4.98 29.4267 5.62 29.8133C6.27333 30.1867 7.02 30.3733 7.86 30.3733ZM19.8831 23.3733C20.2431 22.7867 20.7098 22.3267 21.2831 21.9933C21.8698 21.66 22.5365 21.4933 23.2831 21.4933V24.4333H22.5431C21.6631 24.4333 20.9965 24.64 20.5431 25.0533C20.1031 25.4667 19.8831 26.1867 19.8831 27.2133V32.7333H17.0831V21.6533H19.8831V23.3733ZM29.5091 21.4733C30.3357 21.4733 31.0624 21.64 31.6891 21.9733C32.3157 22.2933 32.8091 22.7133 33.1691 23.2333V21.6533H35.9891V32.8133C35.9891 33.84 35.7824 34.7533 35.3691 35.5533C34.9557 36.3667 34.3357 37.0067 33.5091 37.4733C32.6824 37.9533 31.6824 38.1933 30.5091 38.1933C28.9357 38.1933 27.6424 37.8267 26.6291 37.0933C25.6291 36.36 25.0624 35.36 24.9291 34.0933H27.7091C27.8557 34.6 28.1691 35 28.6491 35.2933C29.1424 35.6 29.7357 35.7533 30.4291 35.7533C31.2424 35.7533 31.9024 35.5067 32.4091 35.0133C32.9157 34.5333 33.1691 33.8 33.1691 32.8133V31.0933C32.8091 31.6133 32.3091 32.0467 31.6691 32.3933C31.0424 32.74 30.3224 32.9133 29.5091 32.9133C28.5757 32.9133 27.7224 32.6733 26.9491 32.1933C26.1757 31.7133 25.5624 31.04 25.1091 30.1733C24.6691 29.2933 24.4491 28.2867 24.4491 27.1533C24.4491 26.0333 24.6691 25.04 25.1091 24.1733C25.5624 23.3067 26.1691 22.64 26.9291 22.1733C27.7024 21.7067 28.5624 21.4733 29.5091 21.4733ZM33.1691 27.1933C33.1691 26.5133 33.0357 25.9333 32.7691 25.4533C32.5024 24.96 32.1424 24.5867 31.6891 24.3333C31.2357 24.0667 30.7491 23.9333 30.2291 23.9333C29.7091 23.9333 29.2291 24.06 28.7891 24.3133C28.3491 24.5667 27.9891 24.94 27.7091 25.4333C27.4424 25.9133 27.3091 26.4867 27.3091 27.1533C27.3091 27.82 27.4424 28.4067 27.7091 28.9133C27.9891 29.4067 28.3491 29.7867 28.7891 30.0533C29.2424 30.32 29.7224 30.4533 30.2291 30.4533C30.7491 30.4533 31.2357 30.3267 31.6891 30.0733C32.1424 29.8067 32.5024 29.4333 32.7691 28.9533C33.0357 28.46 33.1691 27.8733 33.1691 27.1933ZM38.0037 27.1533C38.0037 26.0333 38.2237 25.04 38.6637 24.1733C39.1171 23.3067 39.7238 22.64 40.4838 22.1733C41.2571 21.7067 42.1171 21.4733 43.0638 21.4733C43.8904 21.4733 44.6104 21.64 45.2238 21.9733C45.8504 22.3067 46.3504 22.7267 46.7238 23.2333V21.6533H49.5438V32.7333H46.7238V31.1133C46.3638 31.6333 45.8638 32.0667 45.2238 32.4133C44.5971 32.7467 43.8704 32.9133 43.0438 32.9133C42.1104 32.9133 41.2571 32.6733 40.4838 32.1933C39.7238 31.7133 39.1171 31.04 38.6637 30.1733C38.2237 29.2933 38.0037 28.2867 38.0037 27.1533ZM46.7238 27.1933C46.7238 26.5133 46.5904 25.9333 46.3238 25.4533C46.0571 24.96 45.6971 24.5867 45.2438 24.3333C44.7904 24.0667 44.3038 23.9333 43.7838 23.9333C43.2638 23.9333 42.7838 24.06 42.3438 24.3133C41.9038 24.5667 41.5438 24.94 41.2638 25.4333C40.9971 25.9133 40.8638 26.4867 40.8638 27.1533C40.8638 27.82 40.9971 28.4067 41.2638 28.9133C41.5438 29.4067 41.9038 29.7867 42.3438 30.0533C42.7971 30.32 43.2771 30.4533 43.7838 30.4533C44.3038 30.4533 44.7904 30.3267 45.2438 30.0733C45.6971 29.8067 46.0571 29.4333 46.3238 28.9533C46.5904 28.46 46.7238 27.8733 46.7238 27.1933ZM58.4184 21.4933C59.7384 21.4933 60.8051 21.9133 61.6184 22.7533C62.4318 23.58 62.8384 24.74 62.8384 26.2333V32.7333H60.0384V26.6133C60.0384 25.7333 59.8184 25.06 59.3784 24.5933C58.9384 24.1133 58.3384 23.8733 57.5784 23.8733C56.8051 23.8733 56.1918 24.1133 55.7384 24.5933C55.2984 25.06 55.0784 25.7333 55.0784 26.6133V32.7333H52.2784V21.6533H55.0784V23.0333C55.4518 22.5533 55.9251 22.18 56.4984 21.9133C57.0851 21.6333 57.7251 21.4933 58.4184 21.4933Z" fill="url(#paint0_linear_871:80)"/>
<defs>
<linearGradient id="paint0_linear_871:80" x1="3.66667" y1="13.7333" x2="45.2009" y2="61.3108" gradientUnits="userSpaceOnUse">
<stop stop-color="#C50005"/>
<stop offset="1" stop-color="#FF2328"/>
</linearGradient>
</defs>
</svg>
