<svg width="75" height="36" viewBox="0 0 75 36" fill="none" xmlns="http://www.w3.org/2000/svg">
<path d="M72.3 15.175H67.25V20.35H64.6V15.175H59.55V12.775H64.6V7.6H67.25V12.775H72.3V15.175Z" fill="white"/>
<path d="M7.84 30.14C6.54667 30.14 5.35333 29.84 4.26 29.24C3.18 28.6267 2.32 27.78 1.68 26.7C1.05333 25.6067 0.74 24.38 0.74 23.02C0.74 21.66 1.05333 20.44 1.68 19.36C2.32 18.28 3.18 17.44 4.26 16.84C5.35333 16.2267 6.54667 15.92 7.84 15.92C9.14667 15.92 10.34 16.2267 11.42 16.84C12.5133 17.44 13.3733 18.28 14 19.36C14.6267 20.44 14.94 21.66 14.94 23.02C14.94 24.38 14.6267 25.6067 14 26.7C13.3733 27.78 12.5133 28.6267 11.42 29.24C10.34 29.84 9.14667 30.14 7.84 30.14ZM7.84 28.16C8.76 28.16 9.58 27.9533 10.3 27.54C11.02 27.1133 11.58 26.5133 11.98 25.74C12.3933 24.9533 12.6 24.0467 12.6 23.02C12.6 21.9933 12.3933 21.0933 11.98 20.32C11.58 19.5467 11.02 18.9533 10.3 18.54C9.58 18.1267 8.76 17.92 7.84 17.92C6.92 17.92 6.1 18.1267 5.38 18.54C4.66 18.9533 4.09333 19.5467 3.68 20.32C3.28 21.0933 3.08 21.9933 3.08 23.02C3.08 24.0467 3.28 24.9533 3.68 25.74C4.09333 26.5133 4.66 27.1133 5.38 27.54C6.1 27.9533 6.92 28.16 7.84 28.16ZM19.4636 20.58C19.7969 20.02 20.2369 19.5867 20.7836 19.28C21.3436 18.96 22.0036 18.8 22.7636 18.8V21.16H22.1836C21.2903 21.16 20.6103 21.3867 20.1436 21.84C19.6903 22.2933 19.4636 23.08 19.4636 24.2V30H17.1836V18.98H19.4636V20.58ZM29.2994 18.8C30.1527 18.8 30.906 18.9733 31.5594 19.32C32.226 19.6533 32.746 20.0733 33.1194 20.58V18.98H35.4194V30.18C35.4194 31.1933 35.206 32.0933 34.7794 32.88C34.3527 33.68 33.7327 34.3067 32.9194 34.76C32.1194 35.2133 31.1594 35.44 30.0394 35.44C28.546 35.44 27.306 35.0867 26.3194 34.38C25.3327 33.6867 24.7727 32.74 24.6394 31.54H26.8994C27.0727 32.1133 27.4394 32.5733 27.9994 32.92C28.5727 33.28 29.2527 33.46 30.0394 33.46C30.9594 33.46 31.6994 33.18 32.2594 32.62C32.8327 32.06 33.1194 31.2467 33.1194 30.18V28.34C32.7327 28.86 32.206 29.3 31.5394 29.66C30.886 30.0067 30.1394 30.18 29.2994 30.18C28.3394 30.18 27.4594 29.94 26.6594 29.46C25.8727 28.9667 25.246 28.2867 24.7794 27.42C24.326 26.54 24.0994 25.5467 24.0994 24.44C24.0994 23.3333 24.326 22.3533 24.7794 21.5C25.246 20.6467 25.8727 19.9867 26.6594 19.52C27.4594 19.04 28.3394 18.8 29.2994 18.8ZM33.1194 24.48C33.1194 23.72 32.9594 23.06 32.6394 22.5C32.3327 21.94 31.926 21.5133 31.4194 21.22C30.9127 20.9267 30.366 20.78 29.7794 20.78C29.1927 20.78 28.646 20.9267 28.1394 21.22C27.6327 21.5 27.2194 21.92 26.8994 22.48C26.5927 23.0267 26.4394 23.68 26.4394 24.44C26.4394 25.2 26.5927 25.8667 26.8994 26.44C27.2194 27.0133 27.6327 27.4533 28.1394 27.76C28.6594 28.0533 29.206 28.2 29.7794 28.2C30.366 28.2 30.9127 28.0533 31.4194 27.76C31.926 27.4667 32.3327 27.04 32.6394 26.48C32.9594 25.9067 33.1194 25.24 33.1194 24.48ZM37.6541 24.44C37.6541 23.3333 37.8807 22.3533 38.3341 21.5C38.8007 20.6467 39.4274 19.9867 40.2141 19.52C41.0141 19.04 41.8941 18.8 42.8541 18.8C43.7207 18.8 44.4741 18.9733 45.1141 19.32C45.7674 19.6533 46.2874 20.0733 46.6741 20.58V18.98H48.9741V30H46.6741V28.36C46.2874 28.88 45.7607 29.3133 45.0941 29.66C44.4274 30.0067 43.6674 30.18 42.8141 30.18C41.8674 30.18 41.0007 29.94 40.2141 29.46C39.4274 28.9667 38.8007 28.2867 38.3341 27.42C37.8807 26.54 37.6541 25.5467 37.6541 24.44ZM46.6741 24.48C46.6741 23.72 46.5141 23.06 46.1941 22.5C45.8874 21.94 45.4807 21.5133 44.9741 21.22C44.4674 20.9267 43.9207 20.78 43.3341 20.78C42.7474 20.78 42.2007 20.9267 41.6941 21.22C41.1874 21.5 40.7741 21.92 40.4541 22.48C40.1474 23.0267 39.9941 23.68 39.9941 24.44C39.9941 25.2 40.1474 25.8667 40.4541 26.44C40.7741 27.0133 41.1874 27.4533 41.6941 27.76C42.2141 28.0533 42.7607 28.2 43.3341 28.2C43.9207 28.2 44.4674 28.0533 44.9741 27.76C45.4807 27.4667 45.8874 27.04 46.1941 26.48C46.5141 25.9067 46.6741 25.24 46.6741 24.48ZM57.5288 18.8C58.3954 18.8 59.1688 18.98 59.8488 19.34C60.5421 19.7 61.0821 20.2333 61.4688 20.94C61.8554 21.6467 62.0488 22.5 62.0488 23.5V30H59.7888V23.84C59.7888 22.8533 59.5421 22.1 59.0488 21.58C58.5554 21.0467 57.8821 20.78 57.0288 20.78C56.1754 20.78 55.4954 21.0467 54.9888 21.58C54.4954 22.1 54.2488 22.8533 54.2488 23.84V30H51.9688V18.98H54.2488V20.24C54.6221 19.7867 55.0954 19.4333 55.6688 19.18C56.2554 18.9267 56.8754 18.8 57.5288 18.8Z" fill="url(#paint0_linear_1009:83)"/>
<defs>
<linearGradient id="paint0_linear_1009:83" x1="3.55555" y1="11" x2="37.9346" y2="55.94" gradientUnits="userSpaceOnUse">
<stop stop-color="white"/>
<stop offset="1" stop-color="white"/>
</linearGradient>
</defs>
</svg>
