<svg width="73" height="70" viewBox="0 0 73 70" fill="none" xmlns="http://www.w3.org/2000/svg">
<path d="M18.3446 53.8909L18.3448 53.8912C23.4202 58.9665 30.1849 61.7618 37.3895 61.7629H37.3896C43.8661 61.7629 49.9921 59.4844 54.8536 55.3167L60.3308 60.7939C53.9924 66.4225 45.9203 69.5002 37.3717 69.5002C28.1197 69.5002 19.4231 65.899 12.8817 59.3534L12.8816 59.3533C7.33864 53.8103 3.85661 46.5644 2.97134 38.8008C3.56263 38.7327 4.1602 38.7083 4.63115 38.6932L4.63115 38.6933L4.63364 38.6932L4.71903 38.69L4.73469 38.6894L4.75028 38.6879L4.83462 38.6794L4.83462 38.6795L4.84046 38.6788L10.6469 38.0291C11.2664 44.0636 13.8574 49.3975 18.3446 53.8909Z" stroke="white"/>
<path d="M12.6116 10.644L12.6118 10.6438C19.1544 4.10226 27.8478 0.5 37.1019 0.5H37.1061C46.3571 0.5 55.0516 4.10226 61.5941 10.6438C67.5086 16.5593 71.0402 24.3074 71.6385 32.6111C69.0784 33.0211 66.5172 33.4324 63.9619 33.8507C63.6507 27.1363 60.8981 20.8752 56.132 16.107L56.1318 16.1068C51.0555 11.0337 44.2909 8.23841 37.0862 8.23733H37.086C29.903 8.23841 23.1512 11.034 18.0762 16.1069L18.0761 16.107C17.4119 16.7712 16.7998 17.4718 16.2206 18.1923L10.7221 12.6929C11.322 11.9878 11.9505 11.3042 12.6116 10.644Z" stroke="white"/>
<path d="M15.9108 19.2966L15.9109 19.2966L23.4651 26.8498L0.593413 30.3006L3.98317 7.36878L9.69098 13.0756L9.69104 13.0757L15.9108 19.2966Z" stroke="white"/>
<path d="M61.4106 60.459L55.2308 54.2792L47.5569 46.6052L70.4886 43.2155L67.0388 66.0872L61.4106 60.459Z" stroke="white"/>
</svg>
